<svg xmlns="http://www.w3.org/2000/svg" viewBox="0 0 155.85 270.9">
  <g style="isolation: isolate">
    <g id="Layer_2" data-name="Layer 2">
      <g id="Layer_2-2" data-name="Layer 2">
        <g>
          <g>
            <path d="M54.82,263.81a16.9,16.9,0,0,1-12.33-13.59l-.14-.75C35,211.85,39,167,53.47,123.16c21.27-64.3,47.18-93.66,57.34-103.3l.39-.37a15.15,15.15,0,0,1,14.39-3.68l.51.14c10.2,2.7,11.93,11.19,13.77,20.17a197.58,197.58,0,0,1,3.23,24c1.42,18.36,1.54,48.05-6,85.21-9.15,45.24-28,86.13-52.95,115.13l-.6.7a16.85,16.85,0,0,1-17.39,5.63Z" fill="#ff7f70"/>
            <path d="M56.54,257.32a10.17,10.17,0,0,1-7.41-8.18c0-.19-.1-.51-.18-.95-7.12-36.54-3.24-80.17,10.9-122.92C80.64,62.42,105.65,34,115.43,24.73l.38-.36a8.5,8.5,0,0,1,8.06-2.06l.51.13c6.17,1.64,7.2,6.68,8.9,15a189.88,189.88,0,0,1,3.12,23.21c1.39,17.94,1.5,46.95-5.87,83.36-8.93,44.13-27.2,83.93-51.45,112.08l-.7.81a10.14,10.14,0,0,1-10.48,3.4Z" fill="#fff"/>
            <g>
              <polygon points="122.42 81.5 97.92 75 119.09 94.01 91.28 100.02 115.77 106.52 94.6 87.51 122.42 81.5" fill="none" stroke="#3b3d5f" stroke-linecap="round" stroke-linejoin="round"/>
              <path d="M99.51,75.42a1.65,1.65,0,1,1-1.17-2A1.65,1.65,0,0,1,99.51,75.42Z" fill="#3b3d5f"/>
              <path d="M124.41,82a1.64,1.64,0,1,1-1.17-2A1.64,1.64,0,0,1,124.41,82Z" fill="#3b3d5f"/>
              <path d="M96.2,87.87a1.64,1.64,0,1,1-1.16-2A1.64,1.64,0,0,1,96.2,87.87Z" fill="#3b3d5f"/>
              <path d="M121.1,94.48a1.64,1.64,0,0,1-3.17-.84,1.64,1.64,0,1,1,3.17.84Z" fill="#3b3d5f"/>
              <path d="M92.9,100.32a1.64,1.64,0,1,1-1.17-2A1.65,1.65,0,0,1,92.9,100.32Z" fill="#3b3d5f"/>
              <path d="M117.8,106.93a1.64,1.64,0,1,1-1.17-2A1.65,1.65,0,0,1,117.8,106.93Z" fill="#3b3d5f"/>
            </g>
            <path d="M67.9,260.33a10.14,10.14,0,0,0,10.48-3.4l.7-.81C101,230.69,118,195.75,127.69,156.7L94.92,131.47l-38.8,5.93c-11,38.8-13.62,77.7-7.17,110.79.08.44.14.76.18.95a10.17,10.17,0,0,0,7.41,8.18Z" fill="#49b2f8"/>
            <path d="M83.51,176.83l-36.4,5.56C44.45,205.59,45,228,49,248.19c.08.44.14.76.18.95a10.17,10.17,0,0,0,7.41,8.18l11.36,3a10.14,10.14,0,0,0,10.48-3.4l.7-.81c13.45-15.61,25-34.81,34.25-56.33Z" fill="#3b3d5f"/>
          </g>
          <g>
            <path d="M66.52,266.68a11.22,11.22,0,0,0,9.24-7.94c.06-.2.18-.55.33-1,12.81-39,14.56-87.35,5-136.1C66.92,50,43.44,15.42,34,3.9l-.37-.45A9.35,9.35,0,0,0,25.09.09l-.57.07c-7,1-8.8,6.32-11.81,15.23a209.29,209.29,0,0,0-6.61,25c-4,19.45-8.09,51.21-5,92.08C4.78,182,19.32,228.11,42,262.26c.32.48.53.78.66,1a11.19,11.19,0,0,0,11,5.17Z" fill="#ff7f70"/>
            <path d="M50.32,260.63A3.66,3.66,0,0,1,49,259.34c-.15-.24-.33-.51-.59-.9l-.19-.28c-22-33.11-36.1-78-39.72-126.25-3-40,1-71,4.9-90a203.84,203.84,0,0,1,6.37-24.1c3.07-9.07,3.79-10,5.78-10.26l.56-.07a2,2,0,0,1,1.23.21,1.91,1.91,0,0,1,.6.5l.37.46C37.35,19.69,60,53,73.77,123.06c9.36,47.53,7.68,94.53-4.73,132.36-.17.53-.31.94-.38,1.18a3.81,3.81,0,0,1-3.14,2.73l-12.85,1.74a3.78,3.78,0,0,1-2.35-.44Z" fill="#fff"/>
            <line x1="35.69" y1="80.97" x2="39.4" y2="109.1" fill="none" stroke="#3b3d5f" stroke-linecap="round" stroke-linejoin="round"/>
            <g>
              <polygon points="45.53 54.87 20.34 57.62 46.94 67.74 21.74 70.49 45.53 54.87" fill="none" stroke="#3b3d5f" stroke-linecap="round" stroke-linejoin="round"/>
              <path d="M22,57.44A1.64,1.64,0,1,1,20.16,56,1.64,1.64,0,0,1,22,57.44Z" fill="#3b3d5f"/>
              <path d="M47.58,54.65a1.64,1.64,0,1,1-1.81-1.46A1.64,1.64,0,0,1,47.58,54.65Z" fill="#3b3d5f"/>
              <path d="M23.37,70.25a1.64,1.64,0,0,1-3.27.36,1.64,1.64,0,1,1,3.27-.36Z" fill="#3b3d5f"/>
              <path d="M49,67.45A1.64,1.64,0,1,1,47.17,66,1.63,1.63,0,0,1,49,67.45Z" fill="#3b3d5f"/>
            </g>
            <path d="M8.23,128.57c.07,1.11.15,2.22.23,3.34,3.62,48.3,17.73,93.14,39.72,126.25l.19.28c.26.39.44.66.59.9a3.66,3.66,0,0,0,1.36,1.29,3.78,3.78,0,0,0,2.35.44l12.85-1.74a3.81,3.81,0,0,0,3.14-2.73c.07-.24.21-.65.38-1.18,12.41-37.83,14.09-84.83,4.73-132.36q-.55-2.79-1.12-5.5l-33.3-8.46Z" fill="#3b3d5f"/>
            <line x1="39.4" y1="109.1" x2="58.28" y2="252.16" fill="none" stroke="#fff" stroke-linecap="round" stroke-linejoin="round"/>
          </g>
          <g>
            <path d="M155.84,250.7a28.73,28.73,0,0,0-1.3-8.92l-.15-.47c-1.84-5.52-7.55-26.1-8-33.74V27.42h.48a2.26,2.26,0,0,0,2.26-2.26V23.79a2.26,2.26,0,0,0-2.26-2.26h-7a2.27,2.27,0,0,0-2.27,2.26v1.37a2.27,2.27,0,0,0,2.27,2.26h.47V207.26l0,.71c-.17,7-6.18,28.29-8,33.77a28.79,28.79,0,0,0-1.34,9v4.85c0,8.44,2.82,15.27,6.29,15.27h12.3c3.48,0,6.3-6.83,6.3-15.27Z" fill="#3b3d5f"/>
            <line x1="143.4" y1="264.87" x2="143.4" y2="224.71" fill="none" stroke="#fff" stroke-linecap="round" stroke-miterlimit="10"/>
          </g>
          <path d="M143.1,60.16a197.58,197.58,0,0,0-3.23-24C138,27.14,136.3,18.65,126.1,16l-.51-.14c-5.16-1.36-10,1.87-13.82,5.53l-.39.37C103.88,28.84,89,51.23,72.54,86.08,59.18,42.25,44.79,18.27,37.41,9.27l-.36-.45A9.38,9.38,0,0,0,28.5,5.46l-.57.07c-7,1-8.8,6.32-11.81,15.23a211.26,211.26,0,0,0-6.61,25c-4,19.45-8.09,51.21-5,92.08C8.19,187.38,19.32,228.11,42,262.26c.32.48.53.78.66,1a11.19,11.19,0,0,0,11,5.17l12.25-1.66.27.07a16.85,16.85,0,0,0,17.39-5.63l.6-.7c25-29,43.8-69.89,53-115.13C144.64,108.21,144.52,78.52,143.1,60.16Z" fill="#292d96" opacity="0.31" style="mix-blend-mode: multiply"/>
        </g>
      </g>
    </g>
  </g>
</svg>
